<svg width="956" height="651" fill="none" xmlns="http://www.w3.org/2000/svg"><g clip-path="url(#clip0)"><path d="M712.137 1.86c-.298.746-.074 1.79.597 2.386.895.97 1.641.97 4.475.15 3.952-1.119 4.325-1.865 1.267-2.461-1.193-.224-2.983-.672-3.952-.895-1.417-.373-2.014-.15-2.387.82zM782.539 5.29c-5.071 2.61-4.549 3.282 2.685 3.207 5.146 0 6.637-.223 7.234-1.193 2.386-3.729-3.953-4.997-9.919-2.014zM667.915 7.826c-.672 1.79 1.044 4.773 2.759 4.773.895 0 3.356-.746 5.444-1.64l3.878-1.641-4.102-1.343c-5.22-1.566-7.383-1.64-7.979-.149zM647.408 7.9c-6.413.224-7.308.448-7.308 1.567 0 .745.447 2.013 1.044 2.759.969 1.342 1.267 1.342 3.057.373 1.716-.895 2.238-.895 4.326.224 2.162 1.193 2.834 1.193 6.488.298 3.803-.97 4.102-1.268 4.102-3.207 0-2.46.298-2.46-11.709-2.013zM752.41 8.721c-.746.746-.448 1.641 1.044 3.133 1.715 1.715 6.935 2.013 12.379.67 3.431-.894 4.624-1.864 3.58-2.908-.746-.671-16.407-1.491-17.003-.895zM697.522 11.48c0 1.417 2.909 2.983 3.878 2.014.448-.447.149-1.119-.969-1.939-2.163-1.491-2.909-1.491-2.909-.075zM715.942 10.884c-1.118 1.044-.447 2.46 1.193 2.46 2.163 0 3.804-1.118 3.207-2.162-.596-.895-3.654-1.119-4.4-.298zM734.438 11.257c-5.071 1.268-8.204 2.46-8.204 3.206 0 .448 1.268 1.343 2.834 2.163 2.834 1.342 2.909 1.342 4.475-.149.895-.82 2.535-1.79 3.654-2.014 2.983-.745 4.027-2.311 2.163-3.28-.821-.448-1.566-.747-1.715-.747-.15.075-1.567.448-3.207.82zM409.138 13.569c-.821 1.267.596 4.25 2.759 5.742 2.834 2.014 2.983 4.698.298 6.488-1.79 1.193-2.088 1.193-4.4-.075-1.342-.745-2.834-2.162-3.356-3.132-1.491-2.759-4.4-4.25-8.054-4.176-4.027 0-5.071.895-3.878 3.058 1.044 2.088.373 4.325-1.566 4.922-1.566.522-3.803-.82-10.963-6.19-1.789-1.268-3.579-2.237-3.952-1.94-.373.225-1.566 2.09-2.61 4.103-1.566 3.206-2.163 3.728-3.804 3.505-1.491-.15-2.535-1.194-4.325-4.251-3.207-5.37-3.878-5.668-10.739-4.55-8.278 1.418-11.634 3.357-9.695 5.668.746.895 1.79 1.044 4.549.672 3.505-.522 3.729-.373 6.19 2.237 1.417 1.492 2.61 3.058 2.61 3.43 0 .373 1.492.672 3.282.672 2.833 0 3.579.298 4.922 2.237 1.939 2.76 4.101 2.834 7.532.373 5.817-4.251 10.068-5.146 12.603-2.61 2.536 2.535 1.715 5.966-1.491 5.966-2.461 0-10.441 2.908-10.441 3.803s2.908 1.492 5.966 1.268c3.281-.299 4.176 2.013 1.119 3.132-3.058 1.193-1.79 2.536 2.684 2.983 3.058.298 5.072 1.119 8.129 3.207 3.356 2.312 4.698 2.76 7.831 2.76 5.593 0 6.786-.598 8.203-3.804.746-1.566 2.163-3.43 3.132-4.102 2.237-1.417 4.997-7.308 4.4-9.471-.969-3.803 2.312-5.22 7.831-3.43 3.728 1.267 5.742 3.43 8.203 8.874 1.193 2.61 2.61 5.071 3.132 5.37 1.715 1.118 7.532.596 9.695-.746 4.773-3.207 5.444-6.488 2.014-10.366-1.194-1.343-2.238-2.983-2.238-3.58 0-1.491-2.386-2.61-5.742-2.61-1.641 0-4.027-.82-5.817-1.864-2.014-1.268-4.102-1.865-6.414-1.865-2.311 0-4.101-.447-5.22-1.342-2.312-1.94-1.491-3.878 1.715-3.878 1.343-.075 3.282-.522 4.326-1.119 2.983-1.715 4.474-1.342 5.444 1.119l.895 2.237 6.488-.447c6.115-.448 6.637-.373 9.844 1.491 4.176 2.461 7.457 2.461 13.125.075 2.834-1.194 5.146-1.716 6.488-1.417 1.641.298 2.76-.15 4.997-1.865 1.566-1.268 3.505-2.311 4.176-2.311 1.865 0 3.207-1.865 2.61-3.804-.447-1.417-.82-1.491-3.281-.97-2.909.672-11.932.672-46.535.224-12.305-.149-22.448 0-22.671.299zM683.726 15.135c-1.864 1.342-1.119 2.088 3.207 3.356 3.281.895 4.624.67 4.624-.97 0-2.46-5.519-4.102-7.831-2.386zM854.876 48.395c-.597.373-2.237.746-3.58.746-2.013 0-3.132.671-5.742 3.505l-3.207 3.58-9.322-.224c-7.606-.224-9.769 0-11.783.97-2.088 1.118-3.057 1.193-7.979.373-5.444-.895-5.519-.895-7.533 1.044-1.566 1.491-2.759 1.939-5.444 1.939-1.939 0-4.4.372-5.593.82-1.118.447-3.579.746-5.444.746-5.146 0-5.966.522-7.905 4.922l-1.79 4.101-2.908-.522c-4.027-.67-7.159 1.044-8.278 4.475-.522 1.491-.746 3.057-.522 3.58.82 2.088-1.044 4.4-5.071 6.115-3.058 1.417-4.102 2.237-4.102 3.43 0 1.343.373 1.492 2.834 1.268 2.312-.224 2.759 0 2.983 1.342.149 1.268-.447 1.865-2.834 2.834-1.641.672-3.803 1.194-4.773 1.194-1.864 0-4.176 2.088-4.176 3.877 0 .597.671 2.014 1.566 3.133 2.834 3.579 1.119 5.369-5.668 5.817-2.61.223-2.983.447-3.206 2.237-.299 2.535 2.013 4.176 7.159 4.996 2.61.373 4.624 1.343 6.488 2.909 1.491 1.342 2.983 2.386 3.43 2.386.448 0 1.716-1.044 2.834-2.237 2.61-2.908 3.804-2.461 6.787 2.312l2.237 3.729 5.817-.15c3.43-.149 6.413.15 7.458.746 1.044.597 2.908.746 4.922.448 2.311-.373 3.878-.149 5.667.745 1.343.672 4.177 1.417 6.414 1.641 3.729.373 4.027.298 4.027-1.119 0-2.535-3.431-4.623-7.756-4.623-4.922 0-5.593-.448-16.481-10.963-6.265-6.041-6.787-7.681-3.729-11.26 1.492-1.79 1.641-2.313.746-2.686-1.417-.522-1.417-3.728 0-4.921.596-.523 1.939-.672 3.281-.373 1.79.373 2.387.149 3.58-1.567.745-1.044 2.61-3.28 4.176-4.847 1.491-1.566 2.759-3.281 2.759-3.878 0-.522.746-1.715 1.716-2.61 1.342-1.268 2.684-1.64 5.667-1.64 3.655 0 4.102-.224 6.638-3.058 3.878-4.251 7.383-5.817 15.66-6.936 4.028-.522 8.278-1.491 9.546-2.163 1.268-.67 4.4-1.566 6.861-1.939 2.536-.372 5.295-1.118 6.265-1.64.894-.448 4.474-1.193 7.83-1.492 8.427-.895 14.169-3.878 13.498-7.159-.149-.82-1.939-1.864-5.071-2.983-5.369-1.864-7.234-2.088-8.949-.97zM166.394 122.226c-1.566 1.491-2.833 2.908-2.833 3.206 0 .224 1.044.149 2.386-.223 2.61-.821 5.817-3.506 5.817-4.997 0-1.715-2.536-.82-5.37 2.014zM520.107 123.12c-.447.522-1.715 2.089-2.759 3.431-2.685 3.281-4.996 3.058-5.519-.597-.298-1.939-.745-2.684-2.013-2.834-1.864-.298-4.698 2.461-4.698 4.55 0 2.088-4.177 5.891-6.116 5.593-3.43-.448-2.162-5.966 1.716-7.532.82-.299.745-.672-.448-1.641-1.118-.895-2.759-1.119-6.339-.97-4.698.224-4.847.299-6.189 2.909-2.834 5.369-9.322 7.159-17.228 4.773-5.444-1.641-6.935-1.492-8.277 1.118-.895 1.716-1.641 2.238-3.431 2.238-1.641 0-2.386.447-2.908 1.864-.821 2.237-3.282 2.461-5.37.597-1.193-1.119-1.864-1.119-4.773-.373-1.789.522-3.878.895-4.623.895-.746 0-2.163.969-3.282 2.237-1.267 1.491-2.684 2.237-4.101 2.312-1.119 0-4.4.969-7.309 2.088-5.891 2.237-7.905 4.474-9.769 10.963-1.492 5.145-2.461 5.891-8.502 5.891-5.668 0-7.457.97-7.457 4.176 0 2.461-.522 2.983-8.353 8.651-5.742 4.027-5.817 4.176-5.817 7.383 0 2.983-.224 3.281-2.013 3.654-1.194.299-2.611.746-3.207 1.044-1.492.821-2.312 4.922-1.79 8.875.522 3.729-.522 5.369-3.505 5.369-3.58 0-5.892 1.343-7.01 4.027-.746 1.79-1.79 2.834-3.654 3.431-1.343.447-3.133 1.491-3.804 2.237-.746.821-2.162 1.492-3.132 1.492-.969 0-2.536.82-3.505 1.864-.97 1.044-2.163 1.865-2.61 1.865-.522 0-1.268.969-1.641 2.237-.447 1.193-1.193 2.237-1.641 2.312-.522.074-2.759.149-4.996.223l-4.102.075.224 3.058c.224 4.027-.746 4.698-7.01 5.22-5.593.522-8.129 1.641-8.875 3.952-.223.821-2.461 2.834-4.996 4.55-3.804 2.535-5.071 2.983-8.427 2.983-5.594 0-6.041.82-6.638 11.335-.447 9.247-.372 9.546 3.133 9.919 2.013.223 4.623 2.759 4.623 4.623 0 1.566-1.864 4.848-3.654 6.488-2.163 1.939-1.939 3.058.746 4.997l2.386 1.641-.447 6.339-.448 6.264 2.909-.447c2.61-.373 3.207-.15 6.264 2.535 5.593 4.773 9.993 4.848 23.193.298 6.115-2.088 8.054-3.206 10.814-5.891 2.013-2.014 4.4-3.505 5.817-3.803 2.535-.522 2.759-.895 5.295-7.234 1.044-2.685 2.461-2.536 4.922.373 2.311 2.908 3.505 4.176 5.593 6.115.895.895 1.491 2.386 1.491 3.803 0 3.058 2.312 6.041 5.221 6.563 2.461.522 2.461.447 5.667 10.59 1.79 5.667 2.76 7.308 5.743 10.291 3.728 3.803 4.027 4.624 2.684 7.458-.671 1.566-.522 2.312 1.194 4.847 1.118 1.641 2.162 4.4 2.386 6.115.224 1.716.895 3.282 1.566 3.505.597.224 2.834-.074 4.922-.82 2.163-.671 4.624-1.193 5.519-1.193.895 0 1.64-.224 1.715-.597 0-.298.075-1.79.224-3.281.447-5.742 4.027-8.278 9.396-6.637 4.027 1.193 5.519 1.044 7.309-.895 1.939-2.088 3.878-7.309 3.878-10.665 0-1.342.373-3.356.82-4.549.447-1.118 1.119-5.667 1.342-10.067.597-8.726 1.417-10.59 5.295-11.411 1.119-.223 2.685-1.118 3.431-1.939 1.491-1.64 3.281-1.864 4.698-.522 1.342 1.417 3.058-1.193 3.058-4.772 0-2.163.447-3.058 1.864-4.027 4.102-2.685 4.102-5.817 0-6.563-1.864-.373-3.132-1.343-4.698-3.654-2.014-3.058-2.238-3.133-6.115-3.133-3.729 0-4.177-.149-5.072-2.088-.745-1.491-.82-2.908-.373-4.847.523-2.014.448-3.356-.447-5.146-.969-2.163-.969-2.535.075-3.729.671-.745 1.417-2.535 1.715-3.952.895-4.102 2.461-6.637 4.847-7.681 1.193-.448 2.983-2.089 3.878-3.506 1.044-1.566 2.685-2.833 4.176-3.281 1.343-.373 4.251-2.237 6.489-4.251 2.237-1.939 5.071-3.728 6.264-4.027 1.268-.224 3.729-1.939 5.519-3.654 1.715-1.79 3.728-3.356 4.325-3.58.895-.298.895-.745 0-2.908-2.461-6.339-1.492-8.8 4.474-10.888 3.431-1.193 3.729-1.492 3.356-3.207-.149-1.044-.074-2.312.224-2.834 1.492-2.461 11.186-3.057 19.464-1.268 2.685.597 5.892 1.044 7.234 1.119 2.461 0 4.549 2.237 3.505 3.803-.223.448.299 1.79 1.194 3.058 2.237 3.058 1.566 4.176-2.685 4.475-3.356.223-3.654.447-5.519 3.579-1.118 1.865-2.983 3.878-4.251 4.475-1.342.596-3.132 2.237-4.101 3.654-1.119 1.715-2.61 2.834-4.326 3.281-1.417.373-3.654 1.641-4.996 2.834-1.417 1.193-3.282 2.163-4.177 2.163-2.013 0-7.979 6.637-7.979 8.949 0 2.163 1.939 5.817 4.922 9.173 2.908 3.207 2.983 3.356 1.268 6.861-1.194 2.535-1.194 2.908.074 6.562 1.566 4.55 2.461 5.743 4.027 5.743.672 0 2.163.895 3.282 2.013 1.789 1.716 2.834 2.088 6.264 2.088 3.729 0 4.251.224 6.712 2.76 4.176 4.474 8.352 4.698 15.512.82 2.61-1.417 5.444-2.163 9.023-2.535 2.909-.224 7.607-1.045 10.441-1.641 2.908-.671 8.352-1.268 12.156-1.268 4.996 0 7.383-.298 8.725-1.193 2.088-1.343 4.475-.522 5.22 1.939.522 1.64 1.119 1.79 8.8 2.908 5.444.821 8.129 2.088 9.472 4.549 1.267 2.387-1.045 2.685-4.773.672-2.983-1.567-3.505-1.641-6.488-.746-1.79.522-5.295 2.237-7.756 3.803-7.98 5.146-10.814 5.593-16.482 2.461-5.593-3.057-14.84-2.834-28.637.895-8.8 2.312-8.874 3.803-.745 11.634 5.444 5.369 7.457 8.502 6.413 10.217-.224.373-.074 1.79.298 3.207 1.044 3.505.448 4.772-3.356 6.935-5.294 3.132-7.159 2.685-12.603-2.908-5.444-5.668-6.786-5.966-12.305-2.536-2.983 1.864-4.251 3.356-6.413 7.458l-2.685 5.145 1.939 4.326c2.61 5.593 3.132 11.559 1.342 15.064-1.491 2.909-5.593 5.966-7.979 5.966-2.163 0-3.431 1.343-3.431 3.729 0 3.281-2.61 4.773-11.261 6.488-2.759.522-4.847-.82-5.369-3.505-.671-3.058-3.431-4.102-7.831-2.983-1.715.447-5.22.82-7.681.82-4.325.075-4.624.224-6.041 2.61-1.715 2.984-2.908 3.431-9.844 3.58-4.698.075-5.817.448-9.023 2.536-5.37 3.579-8.278 3.281-15.661-1.343-4.549-2.908-6.563-3.728-8.949-3.728-4.848 0-8.8 1.416-11.261 4.176-3.133 3.356-5.743 3.43-7.756.149-1.044-1.715-2.61-2.834-6.115-4.102-4.997-1.864-5.817-2.61-5.817-5.295 0-1.267-.448-1.64-1.79-1.64-2.312 0-4.176-1.865-4.176-4.102 0-.969-.373-2.685-.895-3.803-.821-1.716-.746-2.088.596-3.207.895-.671 2.461-2.61 3.505-4.325 1.417-2.238 2.611-3.207 4.4-3.58 4.475-.97 5.817-3.431 2.536-4.922-2.685-1.268-3.58-3.878-2.61-7.681.596-2.536.596-3.729-.373-5.892-.597-1.566-1.641-2.759-2.237-2.759-.672 0-2.238 1.417-3.505 3.132l-2.238 3.207-6.04.373c-5.37.372-6.19.671-7.756 2.461-2.387 2.759-4.326 9.62-3.654 13.05.223 1.566 1.416 4.177 2.684 5.892 1.193 1.715 2.387 4.251 2.685 5.593.224 1.342 1.864 5.295 3.654 8.651 4.326 8.203 4.251 9.844-.224 14.02-2.013 1.79-3.877 3.281-4.25 3.281-.448 0-1.641-.82-2.685-1.864-2.014-1.939-3.431-2.237-7.98-2.014-1.864.15-2.535.523-2.908 1.939-.522 2.312-2.014 2.909-4.4 1.79-2.685-1.193-6.637.149-13.349 4.699-4.027 2.759-6.637 3.952-8.949 4.176-2.983.373-3.356.596-3.729 2.759-.298 1.268-1.641 4.176-3.058 6.414-2.908 4.474-3.132 6.413-1.417 10.067 2.163 4.624 1.492 5.221-5.667 4.997-6.19-.224-6.488-.224-9.322 2.088-2.536 2.014-3.282 2.237-5.743 1.864-4.101-.745-6.264.895-6.712 4.997-.522 4.475-3.057 9.919-5.369 11.41-1.044.671-3.207 1.417-4.922 1.641l-2.983.447.149 3.804.224 3.803-2.237-.224c-1.194-.149-5.146-.149-8.8-.149l-6.488.149-3.506-3.43c-3.579-3.58-4.623-3.953-6.861-2.685-2.162 1.119-2.461 2.983-.894 5.519 2.013 3.281 3.132 7.83 2.311 9.396-.447.895-2.013 1.417-5.22 1.715-3.952.448-5.071.224-8.203-1.342-4.624-2.312-5.071-2.312-8.651.149-2.536 1.865-3.58 2.088-8.651 2.088-3.132 0-5.966.224-6.264.597-.298.298.298 1.491 1.342 2.61 1.492 1.492 1.865 2.536 1.566 4.102-.596 3.132.671 4.027 6.712 4.474 8.054.597 11.485 1.79 14.095 5.072 1.641 2.013 2.983 2.908 4.624 3.057 2.162.224 2.311.448 2.535 3.58.299 3.952 2.461 6.637 7.309 8.949 4.101 1.864 4.325 2.759 4.325 15.661.075 9.247-.149 10.515-2.014 15.661-1.193 3.057-2.461 6.935-2.833 8.576-1.417 5.668-4.326 7.458-13.499 8.054-5.817.373-6.637.298-8.427-1.119-1.939-1.491-2.013-1.491-5.071-.149-4.847 2.238-11.783 1.939-17.301-.745-4.326-2.089-4.848-2.163-16.109-2.238-9.844-.074-12.007-.298-14.244-1.491-3.579-1.939-6.19-1.193-7.308 2.088-.97 3.058-1.79 3.43-7.159 3.43-7.309 0-9.322 4.922-4.4 11.038 1.416 1.789 2.759 3.878 2.983 4.698.298.746-.299 3.729-1.194 6.637l-1.715 5.295 2.387 2.237c1.342 1.268 2.386 2.61 2.386 3.058 0 2.61-3.356 11.261-5.593 14.393-1.641 2.386-2.61 4.549-2.61 6.041 0 1.491-.821 3.356-2.238 5.145-2.013 2.536-2.237 3.356-2.237 7.98 0 5.22 0 5.22 1.864 4.773 1.492-.373 2.312 0 3.804 1.566 1.864 2.014 1.939 2.237 1.641 11.41l-.224 9.322 4.996 1.044c4.922 1.044 4.997.97 8.353-.969 4.027-2.312 8.054-2.536 11.485-.448 1.267.821 2.461 1.715 2.461 2.014.074.373.223 2.088.298 3.803.224 2.834.746 3.803 4.4 7.309 2.237 2.237 4.325 4.027 4.624 4.027.223 0 1.715-1.343 3.206-3.058 3.878-4.251 8.875-5.295 28.787-5.817l15.66-.447 1.343-4.251c1.79-5.668 4.325-7.532 10.739-7.905 2.535-.224 4.996-.746 5.444-1.268.373-.447 1.044-2.983 1.342-5.519.746-5.22 1.492-6.04 5.519-6.04 2.162 0 3.356-.597 5.369-2.61 1.492-1.417 3.132-2.611 3.729-2.611 1.715 0 2.908-2.684 1.939-4.474-.447-.82-1.268-1.492-1.864-1.492-.597 0-1.79-.671-2.685-1.566-2.237-2.237-1.79-4.549 3.579-20.508 1.343-4.176 4.028-6.414 10.814-9.247 3.132-1.268 7.159-3.431 8.874-4.699 5.445-4.176 6.936-4.996 9.024-4.996 4.176 0 6.712-5.444 4.698-10.217-1.789-4.176-1.417-8.651.746-11.261 1.492-1.79 3.058-2.536 7.309-3.505 7.084-1.641 12.379-1.044 15.661 1.79 2.983 2.61 6.488 3.803 11.037 3.803 3.057 0 4.325-.522 8.651-3.505 5.071-3.505 10.962-6.19 13.498-6.19 2.312 0 4.624-3.132 4.624-6.19 0-3.132 1.789-4.549 4.996-3.803 6.414 1.417 16.332 5.146 17.824 6.786.895.97 3.057 4.549 4.847 7.905 1.715 3.356 4.549 7.607 6.264 9.471 1.79 1.865 3.431 4.4 3.655 5.743.671 2.983 1.64 3.803 4.922 4.101 2.088.15 2.834.746 3.878 2.76.969 2.013 2.834 3.356 8.8 6.488 6.637 3.58 8.054 4.027 11.932 4.027 3.654 0 4.549.298 5.518 1.641.672.895 1.194 2.386 1.194 3.281 0 2.759 2.61 4.325 8.352 4.847 5.37.448 6.861 1.417 6.115 3.804-.671 2.237.373 4.027 3.058 5.295 3.356 1.566 8.352 6.189 9.769 8.949 1.865 3.505 2.536 9.396 1.268 10.664-.597.597-1.491 1.044-2.088 1.044-1.193 0-1.641 1.193-2.312 5.817-.447 3.729.671 6.115 3.058 6.115.895 0 5.295-6.413 8.725-12.603.746-1.342 1.865-2.312 2.759-2.312 3.431 0 4.997-4.698 2.685-7.979-.671-.97-2.535-2.089-4.176-2.611-5.146-1.491-6.339-5.369-2.909-9.172.746-.821 1.492-2.312 1.641-3.282.448-3.281 2.312-3.579 7.309-1.193 4.399 2.088 4.772 2.536 5.369 6.712.597 3.878 5.817 1.118 5.817-3.058 0-2.237-.373-2.685-3.58-4.325-2.013-1.044-7.308-4.027-11.708-6.787-4.549-2.684-9.397-5.071-11.037-5.369-4.177-.671-4.997-1.715-4.027-5.444 1.193-4.475.149-5.146-9.322-5.892-10.59-.894-12.007-1.715-15.214-8.874-2.834-6.414-3.43-7.532-7.159-13.946-3.953-6.637-5.966-8.576-9.098-8.576-3.804 0-7.458-3.356-7.383-6.786.149-6.638.671-13.797 1.193-14.543.298-.522 1.715-1.118 3.132-1.342 1.417-.298 2.908-1.193 3.356-1.939 1.342-2.536 3.43-3.207 5.966-1.864 2.461 1.267 2.983 2.759 2.759 7.905-.223 4.4 1.044 5.891 4.773 5.891 2.387 0 3.132.373 3.803 1.865 1.045 2.311 1.716 2.311 3.282 0 2.013-3.058 4.474-1.865 3.505 1.789-.224.895.298 2.387 1.193 3.729.895 1.193 1.566 2.834 1.566 3.654 0 2.685 2.983 5.221 11.559 9.77 6.414 3.43 9.322 4.549 11.634 4.549 4.177 0 5.37.82 8.576 5.966 2.611 4.325 5.221 6.712 7.16 6.712.522 0 3.281 1.118 6.19 2.535 2.833 1.417 6.488 3.058 7.979 3.655 4.698 1.939 4.997 3.057 4.326 16.183l-.597 11.559 2.536 2.088c1.789 1.566 2.535 2.759 2.535 4.251 0 3.878 1.268 5.966 3.505 5.966 2.909.074 4.922 1.864 7.831 7.01 2.61 4.624 2.759 4.773 8.054 7.085 2.685 1.118 4.251 1.342 7.457.895 5.221-.597 12.305.298 15.214 2.013 1.491.895 2.461 2.088 2.685 3.58.372 1.939.671 2.162 3.057 2.162 1.79.075 3.505.746 5.071 2.089 2.685 2.237 3.804 2.461 5.146 1.118 2.461-2.461.298-6.339-5.295-9.844-2.759-1.715-2.088-2.237 2.461-2.013 3.058.149 3.729-.075 3.729-1.044 0-1.194-3.43-4.848-4.624-4.848-.373 0-1.64-.746-2.834-1.566-1.939-1.417-2.386-1.491-4.4-.671-1.939.746-2.61.746-4.176-.298-2.088-1.343-2.461-3.505-.746-4.922 1.641-1.343 1.492-1.716-2.61-5.743-3.579-3.505-3.654-3.729-3.803-8.278-.149-3.356.149-4.996.969-5.817.97-1.044 1.641-.671 5.668 3.356l4.624 4.549 3.057-1.64c2.76-1.417 2.984-1.715 2.611-3.878-.522-2.759 1.342-5.37 4.474-6.115 2.685-.672 10.441-.672 14.766.074 3.058.522 3.878.97 5.146 3.207l1.491 2.536 4.475-.448c4.997-.522 10.441-2.685 13.2-5.295 1.715-1.566 2.685-1.79 10.441-2.013 8.501-.299 8.576-.299 8.576-2.088 0-1.567-.448-1.939-3.132-2.387-7.011-1.193-12.156-5.668-12.156-10.664 0-1.417-.821-2.983-2.387-4.624l-2.386-2.461.895-5.146c1.193-7.084 2.088-8.725 5.444-10.067 3.579-1.417 4.176-3.953 2.908-12.455-1.044-7.308-.223-9.247 4.251-9.993 6.936-1.118 6.712-1.044 7.234-3.952.224-1.492.447-3.953.447-5.37 0-3.206.522-3.952 3.356-5.444 1.268-.596 2.76-1.939 3.282-2.983.522-1.044 1.939-2.61 3.132-3.43 1.193-.895 2.163-2.238 2.163-2.909 0-3.207 4.027-4.176 6.338-1.64.746.82 1.79 1.491 2.312 1.491.522 0 1.939.82 3.133 1.79 2.386 2.088 7.755 4.176 10.589 4.176 1.044 0 3.729-.522 5.966-1.118 4.922-1.343 6.712-.895 6.712 1.491 0 1.492-1.044 2.312-5.966 4.922-5.742 2.983-8.278 5.295-6.786 6.19.373.298 2.834.671 5.369.969 5.892.597 8.129 2.461 8.129 6.712 0 4.102 1.79 6.339 4.698 6.041 1.939-.149 2.61-.746 3.729-2.983 1.342-2.983 2.983-3.58 5.891-2.014 1.417.746 1.939.448 4.773-2.759l3.133-3.654 3.281 1.715c4.176 2.163 7.681 2.163 8.874.075 1.716-3.282-2.61-4.699-10.515-3.356-2.834.522-3.729.298-5.966-1.194-1.417-.969-3.505-3.132-4.624-4.847-1.193-1.79-3.057-3.431-4.4-3.878-3.057-1.044-2.461-2.386 1.865-3.953 2.088-.745 4.698-2.461 6.264-4.176l2.76-2.908 8.725-.373 8.8-.373 2.908-2.685c3.132-2.834 7.682-4.251 9.695-2.983 1.79 1.119 1.79 3.878.149 10.888-.895 3.431-1.566 7.831-1.566 9.695 0 4.251-2.162 7.234-5.295 7.234-5.071 0-.373 5.071 6.638 7.234 2.311.671 5.145 2.013 6.264 2.908 1.119.97 3.878 2.238 6.19 2.834 2.535.746 4.4 1.79 4.922 2.76.447.894 2.535 3.505 4.623 5.891 2.163 2.312 4.922 5.444 6.116 6.936 3.132 3.579 8.128 4.474 12.305 2.088 3.505-1.939 12.678-2.163 17.003-.448 3.43 1.492 7.83 5.668 10.291 9.919 2.536 4.251 4.699 4.996 9.471 3.43 7.234-2.386 14.468-.223 20.509 6.265l3.952 4.176 9.099.597c18.718 1.193 23.267 1.715 25.728 3.057 3.058 1.641 9.471 2.536 10.143 1.417.447-.746-1.194-3.132-9.024-12.678-1.417-1.79-4.251-4.251-6.264-5.518-4.624-2.834-5.146-3.804-5.146-9.77 0-4.027-.373-5.22-2.163-8.054-3.579-5.295-5.071-6.637-7.756-6.637-4.847 0-5.369-2.76-2.088-9.993 1.193-2.611 2.387-6.19 2.685-7.831.522-3.132 2.013-4.549 4.624-4.549 2.535 0 10.291-4.251 12.006-6.637.97-1.268 1.492-2.685 1.268-3.058-.522-.82.82-1.641 3.281-2.013 15.139-1.939 14.99-1.865 14.99-5.221 0-2.088 2.685-3.952 5.593-3.952 1.194.074 4.102.82 6.339 1.864 2.238.97 4.251 1.641 4.4 1.492.149-.224-.82-1.939-2.088-3.953-1.268-2.013-2.163-4.176-1.939-4.847.298-.597-.373-3.132-1.417-5.668-1.118-2.61-1.939-5.966-1.939-7.905 0-4.251-1.193-6.563-5.593-10.814-2.014-1.939-4.325-5.294-5.593-7.905-1.119-2.535-2.759-5.294-3.505-6.04-1.641-1.641-3.207-5.593-3.207-8.129 0-2.312 2.908-3.132 9.695-2.685 4.325.224 6.712 0 10.739-1.268 2.759-.82 6.04-1.566 7.234-1.566 1.64 0 2.312-.522 3.356-2.61 1.193-2.535 1.193-2.685-1.119-6.637-2.536-4.549-2.61-4.4 3.58-7.532 3.654-1.79 4.698-2.014 9.769-1.715 5.742.372 9.397 1.64 18.644 6.861 3.207 1.789 22.82 10.142 23.864 10.142.224 0 2.834-1.939 5.668-4.4 4.997-4.176 5.22-4.549 6.19-9.098.522-2.611 1.268-5.221 1.715-5.668.447-.522.522-1.566.224-2.237-.97-2.611-3.356-18.271-3.356-22.448 0-5.817-1.193-9.695-3.804-12.305l-2.162-2.162-5.817 5.891c-7.905 8.129-13.275 9.919-21.329 7.234-4.922-1.715-11.708-8.129-14.617-13.871-4.474-9.024-2.61-11.709 10.814-15.885 10.962-3.43 12.603-4.847 12.156-10.142-.522-4.848-4.177-12.156-10.143-19.986l-4.847-6.339-.597-9.77c-.298-5.518-1.044-10.963-1.64-12.678-.672-1.64-2.238-8.054-3.505-14.169-6.787-32.366-14.17-56.081-19.465-62.942-.82-.97-1.417-2.909-1.417-4.326 0-4.4 7.085-10.589 22.671-19.762 2.536-1.492 3.431-2.461 3.431-3.804 0-2.162-2.909-7.979-6.264-12.603-2.238-2.908-3.133-3.579-6.414-4.251-2.088-.447-5.369-1.566-7.308-2.461-2.014-.895-6.041-1.789-9.472-2.162-3.281-.299-7.308-1.044-8.949-1.641-1.939-.746-6.786-1.193-13.796-1.342l-10.814-.299v1.865c0 1.342.672 2.162 2.536 3.057 4.922 2.312 6.19 7.085 2.535 9.397-1.193.671-2.833 2.013-3.803 2.983-.969.969-2.312 1.715-3.132 1.715-1.342 0-4.847-3.803-6.637-7.308-1.044-1.939-2.461-2.088-3.878-.373-2.61 3.132-6.936 4.027-20.136 4.325l-12.678.299-2.461 2.684c-2.759 2.909-5.071 3.282-7.905 1.343-2.386-1.641-2.834-2.238-3.803-5.668-1.119-4.176-3.356-4.922-7.458-2.536-1.789.97-4.772 2.088-6.488 2.312-1.79.298-4.847 1.343-6.712 2.312-1.938 1.044-4.399 1.864-5.444 1.864-3.057 0-8.054 2.014-13.125 5.295-3.356 2.163-5.817 3.207-8.576 3.58-3.878.447-4.027.522-5.817 4.176-1.268 2.536-2.759 4.176-4.624 5.22l-2.759 1.492-7.308-1.79c-11.261-2.685-12.082-3.207-11.112-7.159.596-2.461 3.803-3.953 7.756-3.505 2.908.298 3.132.149 3.132-1.492 0-2.61-1.268-3.878-6.339-6.488-4.997-2.61-9.098-3.505-18.868-4.251-8.278-.596-9.098.224-3.579 3.729 2.237 1.417 4.25 3.281 4.549 4.176.298.821-.075 3.431-.821 5.743-1.267 3.878-1.267 4.176-.074 5.071.745.522 2.684 1.193 4.474 1.417 5.593.895 8.204 4.027 5.37 6.413-1.343 1.119-1.417 3.207-.299 5.295.97 1.865-.298 3.654-2.461 3.654-.82 0-3.952-.894-7.084-1.938-3.058-1.045-8.502-2.163-12.007-2.536-5.444-.448-6.637-.82-7.607-2.237-.596-.895-2.684-3.356-4.549-5.519-2.088-2.386-3.654-4.997-3.952-6.637-.522-2.834-.97-3.058-6.041-3.878-1.641-.298-4.698-1.641-6.786-3.058-4.475-3.057-7.533-4.027-12.305-4.027-4.326 0-7.011-.969-13.275-4.549-3.58-2.163-5.742-2.908-8.054-2.908-1.79 0-6.339-1.044-10.142-2.238-3.953-1.267-8.651-2.237-10.739-2.237-2.088 0-4.326-.447-5.146-1.119-1.864-1.417-3.654-1.417-7.532.075-4.326 1.641-6.563.969-8.427-2.61-1.119-2.312-2.163-3.132-4.922-4.102-4.699-1.566-5.966-1.491-10.292.671-4.251 2.163-6.115 2.238-11.186.746-2.014-.597-4.922-1.119-6.414-1.119-3.057 0-5.518-2.013-5.071-4.25.224-1.119 1.044-1.343 5.444-1.417 5.593-.075 8.576-.746 8.576-1.79 0-.448-.894-.895-2.013-1.119-1.193-.224-4.102-1.118-6.563-1.939-5.518-1.79-8.427-1.79-13.125-.149-4.325 1.566-6.041.895-6.637-2.461-.299-1.864-.746-2.163-3.133-2.386-1.566-.15-3.057.149-3.505.745zm-45.938 298.9c.522.895-.895.895-2.983 0-1.343-.596-1.268-.671.522-.671 1.118-.074 2.237.224 2.461.671z" fill="#232323"/><path d="M474.24 124.686l-2.908.895 2.014.97c2.684 1.193 6.04 1.118 7.159-.224 2.013-2.461-.895-3.207-6.265-1.641zM825.793 131.175c-.597 1.118-.447 1.789.746 2.983.82.82 2.237 1.491 3.206 1.491.895 0 4.028.821 6.861 1.865 5.295 1.789 6.712 1.64 6.19-.821-.149-.895-1.193-1.566-3.207-1.939-1.64-.373-3.505-1.268-4.101-2.013-2.759-3.282-8.278-4.177-9.695-1.566zM733.318 143.107c-3.356 3.356-.597 6.712 5.667 6.712 5.146 0 10.739-1.343 10.739-2.611 0-1.416-1.417-2.311-6.488-4.027-5.817-1.939-8.054-1.939-9.918-.074zM404.065 148.029c-2.014.969-4.176 2.312-4.847 2.908-2.014 2.014 4.027 1.417 6.488-.671 1.118-.895 3.132-2.237 4.325-2.908l2.237-1.194h-2.237c-1.193 0-3.878.821-5.966 1.865zM408.989 151.012c-1.865 2.386-1.268 4.027 1.417 4.027 2.61 0 4.474-1.715 4.474-4.176 0-2.611-3.803-2.536-5.891.149zM396.237 157.052l-2.61 1.193 2.386.746c2.76.821 6.563-.149 6.563-1.79 0-1.491-3.281-1.566-6.339-.149zM82.867 182.632c-.447 1.342-1.417 2.386-2.312 2.536-4.549.969-5.891 1.267-7.681 1.64-1.044.299-2.61.149-3.505-.298-1.715-.82-7.532-1.641-12.827-1.864-2.834-.15-2.983-.075-3.356 2.461-.298 1.491-.746 3.057-1.044 3.579-.895 1.492-3.58 1.044-5.668-.969-1.044-.97-2.983-2.088-4.325-2.312-2.163-.448-2.387-.298-2.387 1.342 0 2.387-1.267 3.878-4.623 5.444-3.73 1.715-5.072 1.119-5.072-2.162 0-4.251-1.342-6.19-5.07-7.533-4.326-1.417-5.296-1.417-7.01.075-.747.746-3.058 1.566-5.147 1.864-2.46.373-4.549 1.343-6.115 2.685-1.342 1.119-3.207 2.61-4.25 3.281l-1.79 1.194 2.088 1.342c1.79 1.193 2.312 1.268 3.654.373 4.176-2.685 7.085-3.729 10.291-3.729 4.326 0 6.041 1.417 5.743 4.773-.15 1.79-.82 2.61-2.834 3.58-2.237 1.118-3.356 1.193-8.054.447-4.177-.597-5.594-.597-6.488.149-1.865 1.492-1.343 3.654.969 4.176 6.339 1.343 10.291 4.997 9.546 8.726-.224 1.193-.075 2.759.298 3.505 1.044 1.939 6.264 2.535 10.814 1.119 5.07-1.492 6.264-1.417 11.037.82l4.176 1.864 6.04-1.939c5.967-1.864 6.489-1.864 25.953-1.715 10.963.075 20.583-.075 21.403-.373 2.163-.746 4.102-4.325 4.102-7.532 0-3.281 3.43-7.458 7.085-8.651 2.237-.746 2.61-1.193 2.61-3.281 0-3.058-1.119-4.176-4.176-4.176-2.536 0-4.773-2.089-4.773-4.475 0-.671-.82-2.013-1.865-2.983-1.64-1.566-2.162-1.641-4.549-.895-3.281.97-4.102.671-6.19-2.088-2.088-2.834-3.654-2.834-4.698 0zM172.657 238.415c1.492 3.505 2.536 4.25 4.699 3.281 3.43-1.566 2.088-4.102-2.76-4.848-2.759-.447-2.759-.372-1.939 1.567zM233.288 260.638c-.671.671-1.044 1.715-.821 2.312.224.597.448 1.193.448 1.342 0 .224.671.672 1.491 1.119 1.044.597 2.163.522 4.102-.298 2.685-1.193 3.431-3.058 1.715-4.773-1.268-1.268-5.518-1.119-6.935.298zM467.529 264.293c-1.64 1.267-1.118 3.355.895 3.355 1.865 0 3.431-1.864 2.834-3.355-.522-1.417-1.864-1.417-3.729 0zM216.732 279.58c-1.79.746-2.386 2.909-.746 3.058 1.566.149 3.729-.224 5.668-.969 1.864-.672 1.864-.746.522-1.79-1.641-1.193-3.058-1.268-5.444-.299zM498.405 281.818c-2.536 1.939-1.343 4.027 2.535 4.325 4.848.448 6.638-2.684 2.685-4.698-2.759-1.417-2.983-1.417-5.22.373zM507.353 288.604c-1.044.448-4.475 1.044-7.681 1.417-3.207.373-6.116.895-6.488 1.119-.373.224 0 1.864.894 3.729 2.014 4.176 4.028 4.4 8.204.82 1.641-1.417 3.952-2.834 5.071-3.058 2.536-.596 4.027-2.162 3.43-3.728-.447-1.268-.82-1.343-3.43-.299zM193.762 291.289c-1.193 5.295-3.878 7.532-10.963 8.8-3.43.671-3.803-.671-.969-3.356 2.684-2.536 2.386-6.264-.522-6.563-2.834-.373-7.682 2.536-9.248 5.519-1.715 3.207-.671 6.041 2.461 6.413 2.014.224 2.088.448 2.088 3.953v3.729l3.282.074c3.356.075 4.549 1.044 4.549 3.729 0 .82.969 2.237 2.237 3.132 2.088 1.566 2.237 1.939 2.014 6.339l-.149 4.624 2.386-.224c4.027-.447 5.22.373 6.488 4.326 1.641 4.996 1.641 5.071-1.864 8.278-3.655 3.355-3.655 5.369-.149 5.742 3.505.373 8.277-1.193 10.067-3.281 2.909-3.282 4.475-2.014 5.37 4.474.373 3.058.969 4.102 3.803 6.712 3.878 3.654 4.475 6.637 1.715 9.247-3.505 3.207-10.217 4.177-13.722 1.865-2.759-1.79-3.281-.522-3.281 8.054 0 7.756-.075 7.98-4.624 10.291-2.759 1.343-4.772 4.475-4.101 6.265.373.969 1.491 1.268 4.922 1.268 6.562 0 15.959 1.416 17.152 2.61.895.82.895 1.417.224 2.983-.746 1.64-1.343 1.864-4.624 1.864-4.474 0-6.861 1.044-13.573 5.742-5.145 3.655-9.844 8.8-9.322 10.217.597 1.641 5.743.522 9.173-1.939 3.058-2.162 3.505-2.311 5.817-1.491 4.4 1.641 5.966 1.118 10.142-2.909 4.177-4.101 4.997-4.25 10.217-2.088 2.238.895 2.76.821 7.682-1.79l5.295-2.759h11.26c9.994 0 11.709-.149 14.617-1.566 4.102-2.013 4.475-2.983 2.088-5.369-1.044-1.119-1.939-2.238-1.939-2.611 0-1.566 2.834-4.101 7.085-6.339l4.475-2.386-.224-3.729c-.373-5.444-1.044-6.339-4.997-6.19-4.101.224-6.339-1.566-6.339-5.071 0-1.566-.522-2.834-1.491-3.505-.746-.522-1.864-2.312-2.386-3.878-.746-2.237-1.492-2.983-3.58-3.654-1.641-.522-2.685-1.342-2.834-2.312-.597-4.176-1.044-4.922-4.102-6.413-3.505-1.865-7.905-4.922-9.247-6.563-.522-.597-.746-1.79-.522-2.759.522-2.088-1.119-5.221-4.549-8.502-2.685-2.61-2.685-2.61-8.8-2.386-5.37.223-6.339 0-7.831-1.343-2.162-2.088-1.864-3.057 1.566-4.698 1.492-.671 2.76-1.641 2.76-2.014 0-1.416 2.983-3.728 4.698-3.728 2.834 0 4.251-2.387 5.071-8.204.895-6.189.522-8.65-1.417-9.098-.745-.224-3.952.448-7.234 1.342-6.786 2.089-10.216 2.238-11.559.672-1.193-1.417.597-4.326 3.654-5.892 2.611-1.342 3.505-3.356 2.088-4.698-.745-.746-1.491-.82-2.983-.298-1.118.447-2.908.671-4.027.447a189.117 189.117 0 00-7.457-.746l-5.444-.373-.373 2.014zM455.375 301.953c-2.834 1.715-3.132 3.58-.97 5.444.821.671 1.492 2.088 1.492 3.207 0 2.536 2.536 2.163 2.834-.447.149-1.045 1.268-2.909 2.461-4.326 1.193-1.342 2.163-3.132 2.163-3.878 0-1.193-.522-1.491-2.76-1.491-1.566 0-3.952.671-5.22 1.491zM437.699 317.018c-.597 2.162-.821 4.251-.523 4.549 1.268 1.268 3.58-.97 4.4-4.102.895-3.505.672-4.325-1.342-4.325-1.044 0-1.641.969-2.535 3.878z" fill="#232323"/><path d="M178.623 319.628c.149.745.745 1.342 1.342 1.342 1.641 0 1.342-2.163-.224-2.461-1.044-.224-1.342.075-1.118 1.119zM388.555 328.055c-.969 1.193-2.163 1.491-5.369 1.491-7.085 0-6.563 3.655.969 7.831l4.624 2.61.82-2.013c.448-1.194 1.492-3.655 2.312-5.594.895-1.864 1.342-4.027 1.119-4.623-.672-1.641-2.909-1.492-4.475.298zM180.71 328.428c-.522.671-.746 1.342-.522 1.566.224.223.746-.299 1.268-1.119.969-1.864.596-2.013-.746-.447zM159.83 338.57c-5.966 1.417-9.695 3.505-9.695 5.444 0 .448 1.045 1.417 2.312 2.088 1.865 1.119 2.238 1.715 2.014 3.729-.149 1.79-.746 2.685-2.237 3.43-2.312 1.045-3.804.597-7.607-2.61-1.641-1.342-2.834-1.715-5.146-1.566-5.369.373-5.742 4.624-.597 6.115 2.014.597 2.387 1.045 2.163 2.611-.224 1.789-1.939 3.132-5.22 4.101-2.461.746-.597 2.312 4.102 3.431 3.206.746 4.698 1.491 4.847 2.386.298 1.641-5.146 7.085-8.8 8.651-2.759 1.268-8.203 6.936-8.203 8.576 0 .448 1.417 2.312 3.132 4.027 2.983 3.058 3.356 3.207 7.308 3.207 5.071-.075 15.96-3.058 18.122-5.071 3.282-2.983 6.712-4.176 12.156-4.325 2.909-.075 5.966-.299 6.787-.597 3.132-.97 6.488-14.244 5.667-22.224-.522-4.996.597-7.308 4.699-9.695 1.416-.82 2.535-1.715 2.535-2.013 0-.298-1.79-2.909-3.952-5.742-2.909-3.655-4.4-5.072-5.444-4.922-2.089.372-6.19.298-9.621-.15-1.715-.223-5.667.224-9.322 1.119zM421.891 337.824c-.522.895 1.119 2.312 2.088 1.715.299-.223.597-.895.597-1.491 0-1.268-1.939-1.417-2.685-.224zM377.593 343.194c0 .596.895 1.267 2.088 1.566 1.119.223 2.834.671 3.729.895 1.566.447 1.715.298 1.491-1.268-.224-1.566-.671-1.79-3.729-2.014-2.684-.149-3.579 0-3.579.821zM364.243 525.532c-.522.895-2.088 2.237-3.654 2.983-4.4 2.013-5.295 7.83-1.492 9.471 1.417.596 1.641 1.268 1.492 3.43-.149 1.939.149 2.834.969 3.207 3.878 1.492 6.712-4.773 5.892-13.125-.299-2.76-.895-5.594-1.417-6.339-.82-1.119-.97-1.119-1.79.373zM362.678 552.304c-2.536 1.343-4.177 1.716-6.489 1.492-3.057-.298-4.698.447-4.698 2.163 0 .447.671 1.044 1.566 1.267 1.343.373 1.492.821 1.044 3.356-.373 2.536-.223 3.058 1.343 4.102 1.491.969 1.864 1.939 2.162 5.519.299 2.908.075 4.996-.671 6.413-1.044 2.088-.298 4.997 1.268 4.997.373 0 .895.82 1.193 1.864.671 2.759 3.58 2.461 6.488-.746 1.343-1.342 3.356-2.908 4.475-3.356 1.939-.671 2.088-.969 1.566-3.206-.298-1.268-.522-6.116-.447-10.665.223-8.651-.299-11.186-2.834-13.722-1.79-1.79-1.716-1.79-5.966.522zM281.762 573.335c-1.268 1.417-1.193 1.566 1.193 2.983 3.207 2.013 6.339 2.013 7.383.149.97-1.864.97-2.014-.447-3.356-1.641-1.715-6.488-1.566-8.129.224zM266.696 582.135c-2.237.82-.448 4.698 2.088 4.698 1.939 0 2.685-2.983.97-4.251-1.417-1.044-1.641-1.044-3.058-.447zM440.684 595.409c-2.461 1.864-8.055 2.61-12.455 1.715-4.847-.969-17.077-.745-18.345.299-1.417 1.118-1.193 5.369.373 6.711.671.672 2.088 1.417 3.132 1.716 1.044.298 2.759 1.417 3.878 2.461 1.79 1.64 2.312 1.79 3.952 1.044 2.76-1.268 3.132-1.119 3.953 1.268.596 1.64 1.118 2.088 2.237 1.789 1.044-.223 1.939.299 2.983 1.865 1.268 1.64 2.387 2.312 4.997 2.61 1.864.298 4.4 1.044 5.667 1.641 2.089 1.118 2.461 1.118 4.102 0 2.759-1.79 2.387-4.699-.82-6.041-3.953-1.641-4.176-4.027-.821-7.756 2.909-3.207 3.133-4.4 1.865-8.129-.895-2.535-2.387-2.908-4.698-1.193zM522.568 598.84c-2.834.82-4.997 3.057-4.624 4.922.075.745 1.641 2.013 3.431 2.833 2.237 1.045 3.281 2.014 3.579 3.356.224 1.044.746 3.133 1.119 4.773.746 2.834.82 2.834 3.654 2.387 2.461-.373 3.058-.224 4.4 1.491 1.119 1.343 1.939 1.79 2.983 1.417 1.119-.298 2.088.075 3.431 1.417 1.044 1.044 2.088 1.939 2.237 1.939.671 0-.671-8.8-1.641-10.664-1.342-2.76-.82-4.251 1.641-4.251 1.044 0 1.864-.224 1.864-.448 0-.298-1.193-2.013-2.684-3.728-1.865-2.387-3.207-3.282-4.624-3.282-1.119 0-3.505-.671-5.295-1.491-3.43-1.566-5.742-1.79-9.471-.671zM560.304 599.287c0 .373 1.491 1.268 3.356 2.163 2.61 1.193 3.356 1.342 3.356.522 0-.597-1.194-1.566-2.611-2.163-2.833-1.193-4.101-1.342-4.101-.522zM562.39 616.067c-2.014.671-2.909 2.088-1.342 2.088 1.193 0 4.474-1.716 4.474-2.387 0-.745-.522-.671-3.132.299zM551.13 636.053c-.746 1.118-.969 2.237-.596 3.281.522 1.268 1.789 1.79 7.159 2.834 4.325.895 7.756 2.088 9.993 3.505 1.864 1.193 4.773 2.461 6.414 2.759 1.64.224 3.579.821 4.325 1.194 3.803 1.939 4.922-4.848 1.342-8.353l-2.162-2.163-7.533.448-7.532.447-3.206-2.311c-4.55-3.207-6.787-3.655-8.204-1.641z" fill="#232323"/><g filter="url(#filter0_f)"><circle cx="429.774" cy="412.197" r="10.5" transform="rotate(-9.961 429.774 412.197)" fill="#DBCA30"/></g><circle cx="429.368" cy="412.776" r="8" transform="rotate(-9.961 429.368 412.776)" fill="#DBCA30"/></g><defs><clipPath id="clip0"><path fill="#fff" transform="translate(.984 .667)" d="M0 0h954.571v649.555H0z"/></clipPath><filter id="filter0_f" x="404.272" y="386.695" width="51.004" height="51.004" filterUnits="userSpaceOnUse" color-interpolation-filters="sRGB"><feFlood flood-opacity="0" result="BackgroundImageFix"/><feBlend in="SourceGraphic" in2="BackgroundImageFix" result="shape"/><feGaussianBlur stdDeviation="7.5" result="effect1_foregroundBlur"/></filter></defs></svg>