<?xml version="1.0" encoding="utf-8"?>
<svg width="243" height="64" fill="none" xmlns="http://www.w3.org/2000/svg"><path d="M34.732 50.004h-8.939l-1.787-5.647h-13.28l-1.788 5.647H0L12.156 14.07h10.42l12.156 35.934zm-17.366-26.54l-4.188 13.193h8.376l-4.188-13.193zM40.079 14.07h13.535c3.541 0 6.504 1.198 8.887 3.593 2.418 2.43 3.627 5.34 3.627 8.727 0 3.388-1.21 6.297-3.627 8.727-2.383 2.395-5.346 3.593-8.887 3.593H48.25v11.294h-8.172V14.07zm8.172 16.94h5.363c1.26 0 2.298-.445 3.116-1.335.817-.89 1.225-1.984 1.225-3.285 0-1.3-.408-2.396-1.225-3.285-.818-.89-1.856-1.335-3.116-1.335H48.25v9.24zM109.739 31.37c2.928 1.916 4.392 4.62 4.392 8.11 0 3.114-1.107 5.647-3.32 7.598-2.213 1.95-4.954 2.926-8.223 2.926H87.572V14.07h13.994c3.167 0 5.84.958 8.019 2.875 2.18 1.882 3.269 4.346 3.269 7.392 0 2.909-1.038 5.253-3.115 7.032zm-8.173-9.6h-5.822v6.365h5.822c.92 0 1.669-.29 2.248-.872.579-.616.868-1.386.868-2.31 0-.924-.289-1.677-.868-2.259-.579-.616-1.328-.924-2.248-.924zm-5.822 20.534h6.844c1.021 0 1.839-.308 2.452-.924.612-.65.919-1.49.919-2.516s-.307-1.848-.919-2.464c-.613-.65-1.431-.975-2.452-.975h-6.844v6.879zM128.668 14.07v28.028h12.769v7.906h-20.941V14.07h8.172zM225.072 29.983H243v3.08c0 5.34-1.668 9.634-5.005 12.885-3.303 3.183-7.509 4.774-12.616 4.774-5.551 0-10.164-1.796-13.842-5.39-3.643-3.593-5.465-8.008-5.465-13.244 0-5.236 1.805-9.668 5.414-13.295 3.609-3.628 8.053-5.442 13.331-5.442 3.303 0 6.333.753 9.091 2.259 2.793 1.472 4.972 3.457 6.538 5.955l-6.946 4.004c-.817-1.267-2.009-2.276-3.575-3.029-1.533-.787-3.252-1.18-5.159-1.18-3.031 0-5.55 1.009-7.559 3.028-1.975 1.985-2.963 4.569-2.963 7.751 0 3.08 1.022 5.63 3.065 7.65 2.043 1.95 4.767 2.925 8.172 2.925 4.699 0 7.746-1.848 9.143-5.544h-9.552v-7.187z" fill="#fff"/><path d="M172.708 13.4h.54l1.513 9.34-1.08 9.34v.76l8.32-.76 8.32 1.086v.76l-8.32 1.194-8.32-1.194-.865-.76-.324-1.086-1.297-9.34 1.513-9.34z" fill="url(#paint0_linear)"/><path d="M196.618 31.216c0 13.085-10.552 23.682-23.557 23.682-13.004 0-23.557-10.597-23.557-23.682 0-13.084 10.553-23.681 23.557-23.681 13.005 0 23.557 10.597 23.557 23.681z" stroke="url(#paint1_linear)" stroke-width="2.332"/><path d="M162.284 4.806h22.188V9.56l-11.094-1.584-11.094 1.584V4.806z" fill="#FFE41D"/><path d="M162.284 4.806h22.188V9.56l-11.094-1.584-11.094 1.584V4.806z" fill="#FFE41D"/><path d="M184.472 57.739h-22.188v-4.755l11.094 1.585 11.094-1.585v4.755z" fill="#FFAE04"/><path d="M166.088 63.127a3.803 3.803 0 01-3.803-3.804v-5.071h3.803v8.875z" fill="#FFAE04"/><path d="M166.088.368a3.803 3.803 0 00-3.803 3.804v5.071h3.803V.368zM180.668.368a3.804 3.804 0 013.804 3.804v5.071h-3.804V.368z" fill="#FFE41D"/><path d="M180.668 63.127a3.804 3.804 0 003.804-3.804v-5.071h-3.804v8.875z" fill="#FFAE04"/><defs><linearGradient id="paint0_linear" x1="180.758" y1="13.401" x2="180.758" y2="35.12" gradientUnits="userSpaceOnUse"><stop stop-color="#FFE91F"/><stop offset="1" stop-color="#FFA901"/></linearGradient><linearGradient id="paint1_linear" x1="173.061" y1="6.368" x2="173.061" y2="56.064" gradientUnits="userSpaceOnUse"><stop stop-color="#FFE91F"/><stop offset="1" stop-color="#FFA901"/></linearGradient></defs></svg>