<?xml version="1.0" encoding="utf-8"?><svg viewBox="0 0 52 23" xmlns="http://www.w3.org/2000/svg" xmlns:xlink="http://www.w3.org/1999/xlink"><style>:root>svg{display:none}:root>svg:target{display:block}</style><svg viewBox="0 0 31 16" id="arrow-back" xmlns="http://www.w3.org/2000/svg"><path d="M.293 7.293a1 1 0 000 1.414l6.364 6.364a1 1 0 001.414-1.414L2.414 8l5.657-5.657A1 1 0 006.657.93L.293 7.293zM31 7H1v2h30V7z"/></svg><svg fill="none" viewBox="0 0 12 20" id="banner-link-arrow" xmlns="http://www.w3.org/2000/svg"><path d="M1 1l9 9-9 9" stroke="#DBCA30" stroke-width="2" stroke-linecap="round"/></svg><svg fill="none" viewBox="0 0 33 18" id="blog-inner-down" xmlns="http://www.w3.org/2000/svg"><path d="M1 1l15.5 15L32 1"/></svg><svg viewBox="0 0 12 23" id="fb" xmlns="http://www.w3.org/2000/svg"><path d="M3.063 23V12.208H0V8.322h3.063V5.003C3.063 2.395 4.873 0 9.043 0c1.688 0 2.936.15 2.936.15l-.098 3.63s-1.274-.012-2.663-.012c-1.503 0-1.744.645-1.744 1.717v2.837H12l-.197 3.886h-4.33V23h-4.41z"/></svg><svg viewBox="0 0 19 19" id="ig" xmlns="http://www.w3.org/2000/svg"><path fill-rule="evenodd" clip-rule="evenodd" d="M5.583.057C6.596.01 6.92 0 9.5 0c2.58 0 2.903.011 3.916.057 1.012.046 1.703.207 2.307.441.633.24 1.208.613 1.683 1.097A4.639 4.639 0 0118.5 3.277c.235.604.395 1.295.442 2.306C18.99 6.597 19 6.92 19 9.5s-.011 2.903-.057 3.917c-.046 1.01-.207 1.701-.442 2.306a4.66 4.66 0 01-1.095 1.683 4.657 4.657 0 01-1.683 1.095c-.604.235-1.295.395-2.306.442-1.014.047-1.336.057-3.917.057-2.58 0-2.904-.011-3.917-.057-1.01-.046-1.701-.207-2.306-.442a4.661 4.661 0 01-1.683-1.095 4.656 4.656 0 01-1.096-1.683c-.234-.604-.394-1.295-.441-2.306C.01 12.404 0 12.08 0 9.5s.011-2.904.057-3.916.207-1.703.441-2.307a4.66 4.66 0 011.097-1.683A4.657 4.657 0 013.277.498C3.88.264 4.572.104 5.583.057zm7.756 1.71c-1.002-.046-1.303-.055-3.839-.055-2.537 0-2.837.01-3.839.055-.927.042-1.43.197-1.764.327a2.95 2.95 0 00-1.093.71c-.315.307-.558.68-.71 1.093-.13.335-.285.837-.327 1.764-.046 1.002-.055 1.303-.055 3.839 0 2.537.01 2.837.055 3.839.042.926.197 1.43.327 1.764.152.412.395.786.71 1.093.307.315.68.558 1.093.71.335.13.837.285 1.764.327 1.002.046 1.302.055 3.839.055s2.837-.01 3.839-.055c.926-.042 1.43-.197 1.764-.327a2.95 2.95 0 001.093-.71 2.95 2.95 0 00.71-1.093c.13-.335.285-.838.327-1.764.046-1.002.055-1.303.055-3.839 0-2.537-.01-2.837-.055-3.839-.042-.927-.197-1.43-.327-1.764a2.95 2.95 0 00-.71-1.093 2.948 2.948 0 00-1.093-.71c-.335-.13-.838-.285-1.764-.327zM8.287 12.429a3.168 3.168 0 003.454-5.17 3.169 3.169 0 10-3.454 5.17zm-2.24-6.382a4.883 4.883 0 116.906 6.906 4.883 4.883 0 01-6.906-6.906zm9.419-.703a1.154 1.154 0 10-1.583-1.678 1.154 1.154 0 001.583 1.678z"/></svg><svg viewBox="0 0 25 23" id="in" xmlns="http://www.w3.org/2000/svg"><path d="M2.927 5.414c1.617 0 2.927-1.212 2.927-2.707C5.854 1.212 4.544 0 2.927 0 1.311 0 0 1.212 0 2.707c0 1.495 1.31 2.707 2.927 2.707zM8.618 7.465v15.018h5.043v-7.427c0-1.96.398-3.857 3.026-3.857 2.591 0 2.623 2.24 2.623 3.98v7.305h5.045v-8.236c0-4.045-.942-7.154-6.055-7.154-2.455 0-4.1 1.246-4.773 2.425h-.068V7.465h-4.84zm-8.217 0h5.05v15.018H.402V7.465z"/></svg><svg viewBox="0 0 52 12" id="latest-arrow" xmlns="http://www.w3.org/2000/svg"><path d="M51.53 6.53a.75.75 0 000-1.06L46.757.697a.75.75 0 00-1.06 1.06L49.939 6l-4.242 4.243a.75.75 0 001.06 1.06L51.53 6.53zM0 6.75h51v-1.5H0v1.5z"/></svg></svg>